<?xml version="1.0" encoding="UTF-8"?><svg id="Capa_1" xmlns="http://www.w3.org/2000/svg" viewBox="0 0 779.81 677.48"><path d="M776.97,172.47c0,17.98-75.3,124.06-77.84,126.59-5.66,5.66-15.22,11.39-27.13,10.86-5.92-.26-12.41-2.07-19.3-6.2h0q0-.34-45.27-38.35v393.56c0,7.3-4.75,13.29-11.38,15.13-1.37.39-2.83.59-4.34.59H188.09c-4,0-7.6-1.42-10.34-3.8-3.32-2.86-5.38-7.1-5.38-11.92v-393.56c-1.02.86-2.02,1.7-3,2.53q-42.19,35.55-42.27,35.81h0c-8.07,4.85-15.61,6.5-22.3,6.21-10.52-.44-18.96-5.68-24.13-10.86-2.54-2.53-77.84-108.61-77.84-126.59,0-9.61,3.84-19.09,10.93-26.18.07-.07,91.63-71.07,163.99-113.13,3.84-2.24,7.63-4.39,11.34-6.44,10.47-5.79,20.38-10.82,29.36-14.74,3.97-1.74,7.76-3.26,11.34-4.54,8.23-2.94,15.32-4.58,20.88-4.58,3.03,0,5.85-.01,8.47-.01h2.87c2.65-.01,5.09-.01,7.33,0,.39-.01.76,0,1.14,0,17.9.03,24.41.57,29.36,4.45.6.46,1.17.98,1.73,1.54,7.94,7.93,6.78,23.24,9.61,40.82,2.29,14.23,7.2,29.94,21.69,44.43,2.31,2.31,4.86,4.48,7.67,6.47,3.38,2.4,7.14,4.53,11.33,6.35,8.07,3.53,17.74,5.88,29.36,6.65,2.31.16,4.7.26,7.17.28.5.01,1,.01,1.5.01.9,0,1.79-.01,2.67-.02,11.44-.23,21.13-1.88,29.36-4.62,4.13-1.37,7.9-3.02,11.33-4.91,5.3-2.9,9.81-6.35,13.67-10.21,7.45-7.45,12.37-15.22,15.69-22.95,9.27-21.49,6.27-42.65,11.34-55.53,1.03-2.62,2.39-4.9,4.26-6.77,4.72-4.72,9.81-5.75,25.1-5.96,1.17-.02,2.4-.02,3.7-.03,1.29-.01,2.65-.01,4.08-.01h3.56c1.41,0,2.88.01,4.41.01,2.23.01,4.58.01,7.06.01h3c4.16,0,9.18.92,14.88,2.62,3.53,1.04,7.32,2.38,11.34,3.99,8.83,3.52,18.76,8.31,29.36,13.98,3.7,1.98,7.49,4.07,11.34,6.26,73.18,41.5,169.92,116.51,169.99,116.58,7.09,7.09,10.93,16.57,10.93,26.18Z" fill="#fff"/><path d="M615.73,41.32l-225.53,259.96L160.98,43.21c6.7-4.13,13.32-8.08,19.77-11.78,3.84-2.21,7.63-4.33,11.34-6.35,10.53-5.74,20.45-10.65,29.36-14.38.4-.17.8-.33,1.2-.49l166.95,187.95L553.83,8.86c1.47.58,2.98,1.19,4.52,1.84,8.91,3.73,18.83,8.64,29.36,14.38,3.71,2.01,7.49,4.13,11.34,6.35,5.46,3.14,11.04,6.45,16.68,9.89Z" fill="#ddd"/><path d="M776.97,172.47c0,17.98-75.3,124.06-77.84,126.59-5.17,5.18-13.61,10.42-24.13,10.86-6.69.29-14.23-1.36-22.3-6.2h0q0-.33-42.27-35.82c-.98-.83-1.98-1.67-3-2.53v393.56c0,3.93-1.38,7.49-3.69,10.22-1.29,1.53-2.88,2.8-4.69,3.74-2.18,1.13-4.67,1.76-7.34,1.76H188.09c-2.67,0-5.16-.63-7.34-1.76-5.02-2.6-8.38-7.82-8.38-13.96v-393.56q-45.19,38.08-45.27,38.34h0c-6.89,4.14-13.38,5.95-19.3,6.21-11.91.53-21.47-5.2-27.13-10.86-1.45-1.45-26.75-36.83-48.11-70.19-15.96-24.92-29.73-48.71-29.73-56.4,0-9.61,3.84-19.09,10.93-26.18.06-.06,78.25-60.69,147.22-103.08,6.7-4.13,13.32-8.08,19.77-11.78,3.84-2.21,7.63-4.33,11.34-6.35,10.53-5.74,20.45-10.65,29.36-14.38.4-.17.8-.33,1.2-.49,1.4-.58,2.78-1.14,4.13-1.65,2.07-.79,4.08-1.51,6.01-2.14,1.76-.58,3.47-1.1,5.11-1.54,4.84-1.32,9.13-2.02,12.77-2.02h3c3.03,0,5.85-.01,8.47-.01h2.87c2.65-.01,5.09-.01,7.33,0,.39.01.77.01,1.14.01,17.63.11,23.08.97,28.09,5.98.45.45.88.93,1.27,1.43,6.08,7.66,5.75,20.76,7.82,35.86.73,5.39,1.77,11.04,3.52,16.79,3.15,10.38,8.59,21.07,18.69,31.17,3.11,3.11,6.64,5.96,10.67,8.46,3.41,2.13,7.17,4.01,11.33,5.59,8.16,3.12,17.84,5.1,29.36,5.59,1.84.08,3.73.12,5.67.12.5,0,1,0,1.5-.01,1.42-.01,2.81-.05,4.17-.11,11.52-.49,21.2-2.47,29.36-5.59,4.16-1.58,7.92-3.46,11.33-5.59,4.03-2.5,7.56-5.35,10.67-8.46,10.1-10.1,15.54-20.79,18.69-31.17,1.75-5.75,2.79-11.4,3.52-16.79,2.06-15.1,1.73-28.21,7.82-35.87.39-.5.81-.97,1.26-1.42,5.01-5.01,10.45-5.87,28.1-5.98,1.18-.01,2.41-.01,3.7-.01,1.3-.01,2.66-.02,4.08-.01h.85c.88,0,1.78,0,2.71.01h4.41c1.21.01,2.46.01,3.74.01h3.32c4.88,0,10.92,1.26,17.88,3.55,2.19.72,4.46,1.54,6.82,2.45,1.47.58,2.98,1.19,4.52,1.84,8.91,3.73,18.83,8.64,29.36,14.38,3.71,2.01,7.49,4.13,11.34,6.35,5.46,3.14,11.04,6.45,16.68,9.89,12.3,7.49,24.93,15.59,37.39,23.87,58.22,38.67,112.87,81.05,112.92,81.1,7.09,7.09,10.93,16.57,10.93,26.18Z" fill="none" stroke="#000" stroke-miterlimit="10" stroke-width="5.67"/></svg>
