<?xml version="1.0" encoding="UTF-8"?><svg id="Capa_1" xmlns="http://www.w3.org/2000/svg" viewBox="0 0 779.81 677.48"><path d="M188.09,674.65c-8.8,0-15.72-6.92-15.72-15.72v-393.57q-45.18,38.08-45.27,38.35s0,0,0,0c-20.74,12.44-37.96,3.82-46.43-4.66-2.54-2.54-77.84-108.61-77.84-126.59,0-9.61,3.84-19.09,10.93-26.18.1-.1,184.96-143.44,236.91-143.44,36.68,0,44.18-.74,50.9,5.98,14.36,14.36-1.09,52.87,31.29,85.25,11.72,11.72,29.49,19.76,57.03,19.76,27.54,0,45.31-8.04,57.03-19.76,32.38-32.38,16.93-70.89,31.29-85.25,6.72-6.72,14.22-5.98,50.9-5.98,51.95,0,236.81,143.33,236.91,143.44,7.09,7.09,10.93,16.57,10.93,26.18,0,17.98-75.3,124.06-77.84,126.59-8.47,8.47-25.69,17.1-46.43,4.66,0,0,0,0,0,0q0-.34-45.27-38.35v393.57c0,8.8-6.92,15.72-15.72,15.72H188.09Z" fill="#fff"/><path d="M172.37,265.37q-45.19,38.08-45.27,38.34h0c-20.74,12.45-37.96,3.83-46.43-4.65-1.45-1.45-26.75-36.83-48.11-70.19-15.96-24.92-29.73-48.71-29.73-56.4,0-9.61,3.84-19.09,10.93-26.18.09-.09,143.26-111.1,213.02-137.73,3.96-1.51,7.68-2.75,11.12-3.68.68,44.73-4.67,155.66-65.53,260.49Z" fill="#ddd"/><path d="M607.43,265.37q45.19,38.08,45.27,38.34h0c20.74,12.45,37.96,3.83,46.43-4.65,1.45-1.45,26.75-36.83,48.11-70.19,15.96-24.92,29.73-48.71,29.73-56.4,0-9.61-3.84-19.09-10.93-26.18-.09-.09-143.26-111.1-213.02-137.73-3.96-1.51-7.68-2.75-11.12-3.68-.68,44.73,4.67,155.66,65.53,260.49Z" fill="#ddd"/><path d="M776.97,172.47c0,17.98-75.3,124.06-77.84,126.59-8.47,8.48-25.69,17.1-46.43,4.66h0q0-.34-45.27-38.35v393.56c0,8.81-6.92,15.72-15.72,15.72H188.09c-8.81,0-15.72-6.91-15.72-15.72v-393.56q-45.19,38.08-45.27,38.34h0c-20.74,12.45-37.96,3.83-46.43-4.65-1.45-1.45-26.75-36.83-48.11-70.19-15.96-24.92-29.73-48.71-29.73-56.4,0-9.61,3.84-19.09,10.93-26.18.09-.09,143.26-111.1,213.02-137.73,3.96-1.51,7.68-2.75,11.12-3.68,4.84-1.32,9.13-2.02,12.77-2.02,5.01,0,9.47-.01,13.46-.01,25.25-.05,31.64.19,37.44,5.99,14.37,14.36-1.08,52.87,31.3,85.25,11.72,11.72,29.49,19.76,57.03,19.76s45.31-8.04,57.03-19.76c32.38-32.38,16.93-70.89,31.29-85.25,6.72-6.72,14.23-5.98,50.91-5.98,51.95,0,236.81,143.33,236.91,143.43,7.09,7.09,10.93,16.57,10.93,26.18Z" fill="none" stroke="#000" stroke-miterlimit="10" stroke-width="5.67"/></svg>
