<?xml version="1.0" encoding="UTF-8"?><svg id="Capa_1" xmlns="http://www.w3.org/2000/svg" viewBox="0 0 800 704.15"><path d="M201.02,686.54c-8.8,0-15.72-6.92-15.72-15.72v-393.57q-45.18,38.08-45.27,38.35s0,0,0,0c-20.74,12.44-37.96,3.82-46.43-4.66-2.54-2.54-77.84-108.61-77.84-126.59,0-9.61,3.84-19.09,10.93-26.18.1-.1,184.96-143.44,236.91-143.44,36.68,0,44.18-.74,50.9,5.98,14.36,14.36-1.09,52.87,31.29,85.25,11.72,11.72,29.49,19.76,57.03,19.76,27.54,0,45.31-8.04,57.03-19.76,32.38-32.38,16.93-70.89,31.29-85.25,6.72-6.72,14.22-5.98,50.9-5.98,51.95,0,236.81,143.33,236.91,143.44,7.09,7.09,10.93,16.57,10.93,26.18,0,17.98-75.3,124.06-77.84,126.59-8.47,8.47-25.69,17.1-46.43,4.66,0,0,0,0,0,0q0-.34-45.27-38.35v393.57c0,8.8-6.92,15.72-15.72,15.72H201.02Z" fill="#fff" stroke="#000" stroke-miterlimit="10" stroke-width="5.67"/></svg>
