<?xml version="1.0" encoding="UTF-8"?><svg id="Capa_1" xmlns="http://www.w3.org/2000/svg" viewBox="0 0 779.8 677.49"><path d="M188.09,674.66c-8.8,0-15.72-6.92-15.72-15.72v-393.57q-45.18,38.08-45.27,38.35s0,0,0,0c-20.74,12.44-37.96,3.82-46.43-4.66-2.54-2.54-77.84-108.61-77.84-126.59,0-9.61,3.84-19.09,10.93-26.18.1-.1,184.96-143.44,236.91-143.44,36.68,0,44.18-.74,50.9,5.98,14.36,14.36-1.09,52.87,31.29,85.25,11.72,11.72,29.49,19.76,57.03,19.76,27.54,0,45.31-8.04,57.03-19.76,32.38-32.38,16.93-70.89,31.29-85.25,6.72-6.72,14.22-5.98,50.9-5.98,51.95,0,236.81,143.33,236.91,143.44,7.09,7.09,10.93,16.57,10.93,26.18,0,17.98-75.3,124.06-77.84,126.59-8.47,8.47-25.69,17.1-46.43,4.66,0,0,0,0,0,0q0-.34-45.27-38.35v393.57c0,8.8-6.92,15.72-15.72,15.72H188.09Z" fill="#fff"/><path d="M258.48,2.85v671.8h-70.39c-8.81,0-15.72-6.91-15.72-15.72v-393.56c-.38.32-.75.63-1.12.95V36.98C204.34,17.28,234.19,2.86,250.67,2.86c2.76,0,5.36,0,7.81-.01ZM389.9,113.85c-18.95,0-33.27-3.8-44.18-9.99v570.79h87.24V104.47c-10.76,5.83-24.75,9.38-43.06,9.38ZM529.13,2.86c-3.19,0-6.17,0-8.94-.01v671.8h71.52c8.8,0,15.72-6.91,15.72-15.72V36.32c-32.64-19.36-62.01-33.46-78.3-33.46Z" fill="#ddd"/><path d="M188.09,674.66c-8.8,0-15.72-6.92-15.72-15.72v-393.57q-45.18,38.08-45.27,38.35s0,0,0,0c-20.74,12.44-37.96,3.82-46.43-4.66-2.54-2.54-77.84-108.61-77.84-126.59,0-9.61,3.84-19.09,10.93-26.18.1-.1,184.96-143.44,236.91-143.44,36.68,0,44.18-.74,50.9,5.98,14.36,14.36-1.09,52.87,31.29,85.25,11.72,11.72,29.49,19.76,57.03,19.76,27.54,0,45.31-8.04,57.03-19.76,32.38-32.38,16.93-70.89,31.29-85.25,6.72-6.72,14.22-5.98,50.9-5.98,51.95,0,236.81,143.33,236.91,143.44,7.09,7.09,10.93,16.57,10.93,26.18,0,17.98-75.3,124.06-77.84,126.59-8.47,8.47-25.69,17.1-46.43,4.66,0,0,0,0,0,0q0-.34-45.27-38.35v393.57c0,8.8-6.92,15.72-15.72,15.72H188.09Z" fill="none" stroke="#000" stroke-miterlimit="10" stroke-width="5.67"/></svg>
